<svg id="svg" version="1.1" xmlns="http://www.w3.org/2000/svg" viewBox="0 0 1129 713" style="display: block;"><path d="M0 0 C372.57 0 745.14 0 1129 0 C1129 235.29 1129 470.58 1129 713 C756.43 713 383.86 713 0 713 C0 477.71 0 242.42 0 0 Z " transform="translate(0,0)" style="fill: #FEFEFE;"/><path d="M0 0 C0.99257813 0.17144531 1.98515625 0.34289062 3.0078125 0.51953125 C25.41322183 4.78591755 46.91809248 19.43472007 59.77954102 38.21923828 C69.73477427 53.52884642 75.79761588 72.46475425 72.484375 90.86328125 C72.24460937 91.92095703 72.24460937 91.92095703 72 93 C69.36 93 66.72 93 64 93 C63.94054199 92.09459473 63.94054199 92.09459473 63.87988281 91.17089844 C62.59154332 72.5006526 60.22749748 56.07231539 45.91015625 42.5703125 C42.47393443 39.74544303 38.77842007 37.33902195 35 35 C35.96050558 35.96050558 36.99946984 36.8405503 38.0390625 37.71484375 C47.62380937 45.95309295 55.35428117 55.03529706 57 68 C57.42976459 75.6617109 57.25541565 83.33458348 57 91 C44.50241915 89.17404477 32.06792159 86.97368262 19.625 84.8125 C18.48846985 84.615354 17.3519397 84.41820801 16.18096924 84.21508789 C1.42177787 81.65394552 -13.33539054 79.08082813 -28.08282471 76.45272827 C-29.77173584 76.15195522 -31.46082212 75.85216387 -33.15008545 75.55337524 C-35.46782445 75.1429212 -37.78479414 74.72839279 -40.1015625 74.3125 C-42.04023193 73.96638672 -42.04023193 73.96638672 -44.01806641 73.61328125 C-47 73 -47 73 -49 72 C-50.59165069 71.7108254 -52.19107332 71.46390239 -53.79296875 71.23828125 C-54.80182129 71.09165039 -55.81067383 70.94501953 -56.85009766 70.79394531 C-58.50211182 70.55562988 -58.50211182 70.55562988 -60.1875 70.3125 C-75.55691741 68.03344308 -90.76813236 65.050653 -106 62 C-104.88308168 47.46571604 -98.29027662 36.76537398 -89 26 C-87.93458984 24.76443359 -87.93458984 24.76443359 -86.84765625 23.50390625 C-80.77779322 16.98191189 -73.60750231 12.50444216 -66 8 C-65.31421875 7.57847656 -64.6284375 7.15695312 -63.921875 6.72265625 C-45.41559878 -3.65586352 -20.22409145 -4.60171356 0 0 Z " transform="translate(580,291)" style="fill: #BA3C0B;"/><path d="M0 0 C6.6 0 13.2 0 20 0 C26.93 13.86 33.86 27.72 41 42 C47.93 28.14 54.86 14.28 62 0 C68.6 0 75.2 0 82 0 C82 1.98 82 3.96 82 6 C78.7 6 75.4 6 72 6 C72 19.53 72 33.06 72 47 C75.3 47 78.6 47 82 47 C82 49.31 82 51.62 82 54 C72.76 54 63.52 54 54 54 C54 52.02 54 50.04 54 48 C57.3 48 60.6 48 64 48 C63.67 37.11 63.34 26.22 63 15 C61.80761719 17.38476562 60.61523438 19.76953125 59.38671875 22.2265625 C53.92447917 33.15104167 48.46223958 44.07552083 43 55 C40.7902832 55.02563477 40.7902832 55.02563477 38 54 C36.03950057 51.41053247 34.73757005 48.51875013 33.35546875 45.58984375 C32.94081863 44.74780899 32.52616852 43.90577423 32.09895325 43.03822327 C30.77801592 40.34595545 29.48264395 37.64225589 28.1875 34.9375 C27.29657807 33.11051955 26.4040194 31.28433629 25.50976562 29.45898438 C23.31751349 24.98288183 21.16024581 20.49220891 19 16 C18.67 26.23 18.34 36.46 18 47 C20.97 47 23.94 47 27 47 C27 49.31 27 51.62 27 54 C18.09 54 9.18 54 0 54 C0 51.69 0 49.38 0 47 C3.3 47 6.6 47 10 47 C10 33.47 10 19.94 10 6 C6.7 6 3.4 6 0 6 C0 4.02 0 2.04 0 0 Z " transform="translate(829,412)" style="fill: #BC4213;"/><path d="M0 0 C5.40766124 -0.09940554 10.81478228 -0.17172051 16.22314453 -0.21972656 C18.06015293 -0.23975373 19.89709829 -0.26698382 21.73388672 -0.30175781 C24.38525002 -0.35067065 27.03576541 -0.37305763 29.6875 -0.390625 C30.49928711 -0.41127014 31.31107422 -0.43191528 32.14746094 -0.45318604 C38.53964002 -0.45566132 44.01932409 1.03087795 48.65332031 5.64691162 C51.6294394 9.18968573 52.75414558 12.3976548 52.4140625 17.015625 C51.51929097 21.30377536 49.7857861 24.59540258 46.31640625 27.32421875 C42.96148226 29.38046248 40.97925491 30 37 30 C38.09442433 32.29679188 39.19986661 34.58704964 40.3125 36.875 C40.62123047 37.52597656 40.92996094 38.17695313 41.24804688 38.84765625 C42.88807385 42.19676398 43.83508818 43.89005879 47 46 C51.18573976 46.19932094 54.98575735 46.33808088 59 45 C59.99 46.65 60.98 48.3 62 50 C57.16648957 54.04969793 53.6664814 55.50016636 47.41015625 55.3984375 C42.10534282 54.52146672 38.5393471 51.12148597 35.4609375 46.87890625 C32.62285385 42.09067741 31.08785044 37.4392522 30 32 C26.37 31.67 22.74 31.34 19 31 C19 36.28 19 41.56 19 47 C21.1965625 46.9690625 21.1965625 46.9690625 23.4375 46.9375 C24.95832518 46.91607993 26.48071962 46.92820036 28 47 C29 48 29 48 29 54 C19.43 54 9.86 54 0 54 C0 52.02 0 50.04 0 48 C3.3 48 6.6 48 10 48 C10 34.14 10 20.28 10 6 C6.7 6 3.4 6 0 6 C0 4.02 0 2.04 0 0 Z " transform="translate(215,412)" style="fill: #BC4213;"/><path d="M0 0 C5.28357911 -0.07448116 10.56684863 -0.12875795 15.85083008 -0.16479492 C17.64613167 -0.17982716 19.44139688 -0.20025857 21.23657227 -0.22631836 C23.82577526 -0.26294786 26.41449028 -0.2797821 29.00390625 -0.29296875 C30.19651817 -0.31619453 30.19651817 -0.31619453 31.41322327 -0.33988953 C37.45695829 -0.34169084 42.06497435 0.78293561 46.99609375 4.5078125 C49.8971004 7.76260045 51.39806923 10.13034347 51.5625 14.5625 C51.16221374 19.91178008 49.5002866 23.4997134 45.6875 27.3125 C42.70566278 29.18481639 40.4499177 29.51939078 37 30 C37.73722411 31.92161695 38.49034695 33.8371387 39.25 35.75 C39.66765625 36.81734375 40.0853125 37.8846875 40.515625 38.984375 C42.02387972 42.04851353 43.36422163 43.85307537 46 46 C50.69542622 47.1951994 53.67437961 47.2283499 58 45 C58.99 45.99 59.98 46.98 61 48 C59.97386916 50.97577944 59.03368909 51.97754061 56.375 53.75 C52.3693301 55.23358144 49.21526036 55.75181998 45 55 C36.78283798 50.81085858 33.61970818 44.83418582 30.69921875 36.48828125 C30 34 30 34 30 31 C26.04 31 22.08 31 18 31 C18 36.28 18 41.56 18 47 C21.3 47 24.6 47 28 47 C28 49.31 28 51.62 28 54 C18.43 54 8.86 54 -1 54 C-1 52.02 -1 50.04 -1 48 C2.63 48 6.26 48 10 48 C10 34.14 10 20.28 10 6 C6.7 6 3.4 6 0 6 C0 4.02 0 2.04 0 0 Z " transform="translate(580,412)" style="fill: #BA3E0E;"/><path d="M0 0 C5.24693388 -0.09955505 10.49330697 -0.1717896 15.7409668 -0.21972656 C17.52263986 -0.23972905 19.30424823 -0.26694023 21.08569336 -0.30175781 C40.64934379 -0.67429442 40.64934379 -0.67429442 47 4 C51.58262154 8.81175261 52.30390831 12.00337252 52.2109375 18.46484375 C51.79387892 23.47727001 49.77524028 26.18784352 46.375 29.75 C38.65533979 35.59139739 28.14754668 34.21693787 19 34 C19 38.29 19 42.58 19 47 C22.3 47 25.6 47 29 47 C29 49.31 29 51.62 29 54 C19.43 54 9.86 54 0 54 C0 52.02 0 50.04 0 48 C3.3 48 6.6 48 10 48 C10 34.14 10 20.28 10 6 C6.7 6 3.4 6 0 6 C0 4.02 0 2.04 0 0 Z " transform="translate(435,412)" style="fill: #BC4212;"/><path d="M0 0 C9.9 0 19.8 0 30 0 C30 1.98 30 3.96 30 6 C27.36 6 24.72 6 22 6 C22.54744873 7.04377808 22.54744873 7.04377808 23.10595703 8.10864258 C25.99525355 13.73524032 28.61680265 19.37273393 30.9296875 25.26171875 C31.65865234 27.09186523 31.65865234 27.09186523 32.40234375 28.95898438 C33.15110391 30.84079556 33.8887389 32.72418184 34.59912109 34.62084961 C36.92212369 41.97015084 36.92212369 41.97015084 42.12988281 47.01416016 C44.56453763 47.36758995 44.56453763 47.36758995 48 47 C49 48 49 48 49 54 C40.42 54 31.84 54 23 54 C23 51.69 23 49.38 23 47 C25.64 47 28.28 47 31 47 C30.71125 46.30132812 30.4225 45.60265625 30.125 44.8828125 C29.75375 43.97273438 29.3825 43.06265625 29 42.125 C28.62875 41.22007812 28.2575 40.31515625 27.875 39.3828125 C27 37 27 37 27 35 C18.75 35 10.5 35 2 35 C1.67 36.98 1.34 38.96 1 41 C0.37774395 42.68375165 -0.27544365 44.35767228 -1 46 C1.64 46.33 4.28 46.66 7 47 C7 49.31 7 51.62 7 54 C-1.25 54 -9.5 54 -18 54 C-18 51.69 -18 49.38 -18 47 C-16.15136353 47.00265869 -16.15136353 47.00265869 -14.26538086 47.00537109 C-11.66798093 46.67058923 -10.42445316 46.48057075 -8.67068481 44.49493408 C-7.53642967 42.343174 -6.62684224 40.18460812 -5.75390625 37.9140625 C-5.41246078 37.10133881 -5.07101532 36.28861511 -4.71922302 35.45126343 C-3.63639427 32.85393822 -2.59949013 30.2409176 -1.5625 27.625 C-0.8395135 25.8711872 -0.11363305 24.11856441 0.61523438 22.3671875 C4.0009486 14.25675959 4.0009486 14.25675959 7 6 C4.69 6 2.38 6 0 6 C0 4.02 0 2.04 0 0 Z " transform="translate(720,412)" style="fill: #BC4112;"/><path d="M0 0 C17.49 0 34.98 0 53 0 C53 5.61 53 11.22 53 17 C50.69 17 48.38 17 46 17 C46 13.37 46 9.74 46 6 C36.76 6 27.52 6 18 6 C18 11.94 18 17.88 18 24 C21.96 24 25.92 24 30 24 C30 21.36 30 18.72 30 16 C32.31 16 34.62 16 37 16 C37 22.93 37 29.86 37 37 C34.69 37 32.38 37 30 37 C30 34.69 30 32.38 30 30 C26.04 30 22.08 30 18 30 C18 35.61 18 41.22 18 47 C27.24 47 36.48 47 46 47 C46 43.7 46 40.4 46 37 C48.31 37 50.62 37 53 37 C53 42.61 53 48.22 53 54 C35.51 54 18.02 54 0 54 C0 52.02 0 50.04 0 48 C3.3 48 6.6 48 10 48 C10 34.14 10 20.28 10 6 C6.7 6 3.4 6 0 6 C0 4.02 0 2.04 0 0 Z " transform="translate(643,412)" style="fill: #BB4010;"/><path d="M0 0 C17.49 0 34.98 0 53 0 C53 5.61 53 11.22 53 17 C50.69 17 48.38 17 46 17 C46 13.37 46 9.74 46 6 C36.76 6 27.52 6 18 6 C18 11.94 18 17.88 18 24 C21.96 24 25.92 24 30 24 C30 21.36 30 18.72 30 16 C32.31 16 34.62 16 37 16 C37 22.93 37 29.86 37 37 C34.69 37 32.38 37 30 37 C30 34.69 30 32.38 30 30 C26.04 30 22.08 30 18 30 C18 35.61 18 41.22 18 47 C27.24 47 36.48 47 46 47 C46 43.7 46 40.4 46 37 C48.31 37 50.62 37 53 37 C53 42.61 53 48.22 53 54 C35.51 54 18.02 54 0 54 C0 52.02 0 50.04 0 48 C3.3 48 6.6 48 10 48 C10 34.14 10 20.28 10 6 C6.7 6 3.4 6 0 6 C0 4.02 0 2.04 0 0 Z " transform="translate(494,412)" style="fill: #BB4011;"/><path d="M0 0 C17.82 0 35.64 0 54 0 C54 5.61 54 11.22 54 17 C51.69 17 49.38 17 47 17 C47 13.37 47 9.74 47 6 C37.43 6 27.86 6 18 6 C18 11.94 18 17.88 18 24 C22.29 24 26.58 24 31 24 C31 21.36 31 18.72 31 16 C32.98 16 34.96 16 37 16 C37 22.93 37 29.86 37 37 C35.02 37 33.04 37 31 37 C31 34.69 31 32.38 31 30 C26.71 30 22.42 30 18 30 C18 35.94 18 41.88 18 48 C27.57 48 37.14 48 47 48 C47 44.37 47 40.74 47 37 C49.31 37 51.62 37 54 37 C54 42.61 54 48.22 54 54 C36.18 54 18.36 54 0 54 C0 52.02 0 50.04 0 48 C3.3 48 6.6 48 10 48 C10 34.14 10 20.28 10 6 C6.7 6 3.4 6 0 6 C0 4.02 0 2.04 0 0 Z " transform="translate(278,412)" style="fill: #BB3E0E;"/><path d="M0 0 C0.76749492 0.00291284 1.53498984 0.00582568 2.32574219 0.00882679 C3.13513998 0.00797237 3.94453777 0.00711794 4.77846277 0.00623763 C7.51164669 0.00458035 10.24477027 0.01010822 12.97794861 0.01555592 C14.9288102 0.01583776 16.87967191 0.01568011 18.83053344 0.01511341 C24.14436356 0.01482533 29.45817131 0.02072377 34.7719962 0.02768737 C40.31870881 0.03391915 45.86542188 0.03452457 51.41213745 0.03571278 C61.92356821 0.03882662 72.43498863 0.04704071 82.94641483 0.05706227 C94.90993332 0.06822178 106.87345229 0.07373345 118.83697468 0.0787577 C143.45420285 0.08922328 168.07142183 0.10682373 192.68864197 0.12908131 C193.07082964 1.78522788 193.40259298 3.45365155 193.68864197 5.12908131 C191.94945313 6.86827014 189.69512891 6.25149077 187.37728393 6.25816262 C186.60978901 6.25524978 185.84229409 6.25233693 185.05154175 6.24933583 C184.24214395 6.25019025 183.43274616 6.25104468 182.59882116 6.25192499 C179.86563725 6.25358227 177.13251366 6.2480544 174.39933532 6.2426067 C172.44847373 6.24232486 170.49761202 6.24248251 168.54675049 6.2430492 C163.23292037 6.24333729 157.91911262 6.23743885 152.60528773 6.23047525 C147.05857512 6.22424347 141.51186205 6.22363805 135.96514648 6.22244984 C125.45371572 6.219336 114.9422953 6.21112191 104.4308691 6.20110035 C92.46735061 6.18994084 80.50383164 6.18442917 68.54030925 6.17940491 C43.92308108 6.16893934 19.3058621 6.15133888 -5.31135803 6.12908131 C-5.69354571 4.47293474 -6.02530905 2.80451107 -6.31135803 1.12908131 C-4.5721692 -0.61010752 -2.31784498 0.00667185 0 0 Z " transform="translate(469.31135803461075,390.8709186911583)" style="fill: #B93B0A;"/><path d="M0 0 C2.84243467 1.38998179 5.14420175 2.929358 7.3828125 5.16796875 C7.7128125 3.51796875 8.0428125 1.86796875 8.3828125 0.16796875 C11.0228125 0.16796875 13.6628125 0.16796875 16.3828125 0.16796875 C16.3828125 6.10796875 16.3828125 12.04796875 16.3828125 18.16796875 C14.4028125 18.16796875 12.4228125 18.16796875 10.3828125 18.16796875 C8.3203125 15.41796875 8.3203125 15.41796875 6.3828125 12.16796875 C0.4680675 6.95736006 -3.39373295 6.81890322 -11.1875 6.890625 C-15.45703884 7.23588384 -17.58350896 8.13429021 -20.6171875 11.16796875 C-24.68289718 16.55228697 -25.78178044 20.29736595 -25.8671875 26.98046875 C-25.89296875 28.18316406 -25.91875 29.38585937 -25.9453125 30.625 C-25.50839757 35.34264093 -24.11705644 38.57456678 -20.86328125 42.03125 C-19.96802734 42.74861328 -19.96802734 42.74861328 -19.0546875 43.48046875 C-18.45527344 43.97160156 -17.85585938 44.46273437 -17.23828125 44.96875 C-12.43053659 48.52532255 -6.32847445 47.76845453 -0.6171875 47.16796875 C4.078066 45.35652836 7.79014668 42.54309232 10.3828125 38.16796875 C13.54397026 39.53780378 14.3755217 40.15703255 16.3828125 43.16796875 C11.63802655 49.30827998 6.98128673 53.00878925 -0.6171875 55.16796875 C-9.71075998 56.19153437 -17.01732402 55.43720743 -24.6171875 50.16796875 C-31.29228085 44.50865048 -34.88659226 38.16058926 -35.9453125 29.4765625 C-36.46100855 20.4870427 -33.86960437 12.99117983 -27.87109375 6.1875 C-19.99220187 -0.91929558 -10.2932713 -3.27233849 0 0 Z " transform="translate(377.6171875,411.83203125)" style="fill: #BC4315;"/><path d="M0 0 C9.24 0 18.48 0 28 0 C28 1.98 28 3.96 28 6 C24.7 6 21.4 6 18 6 C18 19.86 18 33.72 18 48 C26.25 48 34.5 48 43 48 C43 43.71 43 39.42 43 35 C45.64 35 48.28 35 51 35 C51 41.27 51 47.54 51 54 C34.17 54 17.34 54 0 54 C0 52.02 0 50.04 0 48 C3.3 48 6.6 48 10 48 C10 34.14 10 20.28 10 6 C6.7 6 3.4 6 0 6 C0 4.02 0 2.04 0 0 Z " transform="translate(772,412)" style="fill: #B93C0B;"/><path d="M0 0 C9.24 0 18.48 0 28 0 C28 1.98 28 3.96 28 6 C24.7 6 21.4 6 18 6 C18 19.86 18 33.72 18 48 C21.3 48 24.6 48 28 48 C28 49.98 28 51.96 28 54 C18.76 54 9.52 54 0 54 C0 52.02 0 50.04 0 48 C3.3 48 6.6 48 10 48 C10 34.14 10 20.28 10 6 C6.7 6 3.4 6 0 6 C0 4.02 0 2.04 0 0 Z " transform="translate(401,412)" style="fill: #B93B0B;"/><path d="M0 0 C2.84625 -0.0825 5.6925 -0.165 8.625 -0.25 C9.51010254 -0.28641602 10.39520508 -0.32283203 11.30712891 -0.36035156 C16.71436474 -0.43580703 19.7013663 0.42882738 24 4 C26.37040308 6.37040308 26.34465793 7.06302753 26.4375 10.3125 C26.36995867 14.12551521 26.12249249 14.84527264 23.625 18 C20.27543912 20.55204638 18.76638999 21.12510927 14.6484375 21.09765625 C13.88192871 21.09515869 13.11541992 21.09266113 12.32568359 21.09008789 C11.35195801 21.08098389 10.37823242 21.07187988 9.375 21.0625 C6.28125 21.041875 3.1875 21.02125 0 21 C0 14.07 0 7.14 0 0 Z " transform="translate(453,418)" style="fill: #FCF6F4;"/><path d="M0 0 C4.021875 -0.0928125 4.021875 -0.0928125 8.125 -0.1875 C8.95789551 -0.21481201 9.79079102 -0.24212402 10.64892578 -0.27026367 C16.41179163 -0.33420384 20.53690393 0.77526807 24.9375 4.75 C26.56642957 8.19949791 26.03214623 10.38748821 25 14 C22.03633693 16.96366307 19.39436473 18.85702073 15.09887695 19.11352539 C14.40238037 19.10828857 13.70588379 19.10305176 12.98828125 19.09765625 C11.96408081 19.09390991 11.96408081 19.09390991 10.91918945 19.09008789 C10.05898193 19.08098389 9.19877441 19.07187988 8.3125 19.0625 C4.1978125 19.0315625 4.1978125 19.0315625 0 19 C0 12.73 0 6.46 0 0 Z " transform="translate(233,418)" style="fill: #FBF4F2;"/><path d="M0 0 C2.84625 -0.0825 5.6925 -0.165 8.625 -0.25 C9.51010254 -0.28641602 10.39520508 -0.32283203 11.30712891 -0.36035156 C16.68827905 -0.43544301 19.75397618 0.38351283 24 4 C25.42662219 6.85324437 25.31033868 8.83454549 25 12 C22.54104443 16.00718686 20.45180439 17.65720031 16 19 C13.18156537 19.13802324 10.49667223 19.18976313 7.6875 19.125 C3.8821875 19.063125 3.8821875 19.063125 0 19 C0 12.73 0 6.46 0 0 Z " transform="translate(598,418)" style="fill: #FBF8F6;"/><path d="M0 0 C3.6578218 2.03993908 5.66946174 3.50419262 8 7 C8.42740092 12.29977145 8.52351458 15.74748241 5 20 C2.69879842 21.97245849 1.1038877 22.96481633 -1.9609375 23.0625 C-6.045838 22.69804791 -9.06516262 22.04771575 -12 19 C-14.49760976 15.50334633 -14.36771499 12.19195086 -14 8 C-11.30432723 1.75738939 -6.76568273 -0.9665261 0 0 Z " transform="translate(580,264)" style="fill: #BD4517;"/><path d="M0 0 C2.75626084 1.37813042 2.87620228 2.79750765 3.9453125 5.65625 C4.29980469 6.59597656 4.65429688 7.53570312 5.01953125 8.50390625 C5.38433594 9.49261719 5.74914062 10.48132813 6.125 11.5 C6.68380859 12.98306641 6.68380859 12.98306641 7.25390625 14.49609375 C10 21.82906937 10 21.82906937 10 23 C3.73 23 -2.54 23 -9 23 C-7.68875679 19.54118534 -6.37606533 16.08293267 -5.0625 12.625 C-4.68931641 11.64015625 -4.31613281 10.6553125 -3.93164062 9.640625 C-3.39506836 8.22910156 -3.39506836 8.22910156 -2.84765625 6.7890625 C-2.51773682 5.91975098 -2.18781738 5.05043945 -1.84790039 4.15478516 C-1 2 -1 2 0 0 Z " transform="translate(734,418)" style="fill: #FCF7F5;"/><path d="M0 0 C1 2 1 2 1.375 5.625 C1.71350189 8.69371385 2.37960054 11.21354497 3.5625 14.0625 C5.06939003 17.85570593 5.457254 20.88471403 5 25 C3.5 28.4375 3.5 28.4375 2 31 C1.67 31 1.34 31 1 31 C0.79503906 30.01257813 0.59007812 29.02515625 0.37890625 28.0078125 C-0.02521484 26.08582031 -0.02521484 26.08582031 -0.4375 24.125 C-0.70433594 22.84882813 -0.97117187 21.57265625 -1.24609375 20.2578125 C-1.8347826 17.13539756 -1.8347826 17.13539756 -3 15 C-3.14754174 13.21247508 -3.2211522 11.4183716 -3.25 9.625 C-3.27578125 8.66851562 -3.3015625 7.71203125 -3.328125 6.7265625 C-2.95439914 3.62107853 -2.06626291 2.29463934 0 0 Z " transform="translate(470,300)" style="fill: #BF4B1F;"/><path d="M0 0 C3.6396298 6.86939139 7.0979921 15.15719927 6 23 C4.5 26.4375 4.5 26.4375 3 29 C2.67 29 2.34 29 2 29 C1.69255859 27.53626953 1.69255859 27.53626953 1.37890625 26.04296875 C1.10949219 24.77066406 0.84007812 23.49835938 0.5625 22.1875 C0.29566406 20.92292969 0.02882813 19.65835937 -0.24609375 18.35546875 C-0.93427886 15.02954587 -0.93427886 15.02954587 -2 12 C-2.4 3.6 -2.4 3.6 0 0 Z " transform="translate(475,286)" style="fill: #BC4A1E;"/><path d="M0 0 C3.34977636 2.89710388 3.71534478 5.11177002 4.078125 9.40234375 C3.96226396 13.25472342 2.90010863 16.67059532 1.76953125 20.3359375 C0.74290838 23.89003293 0.34686971 27.32318105 0 31 C-3.12242942 28.14908618 -3.914186 26.09412856 -4.25 21.8125 C-4.00044889 18.00684553 -3.16952018 15.6449211 -1.734375 12.19921875 C-0.41489121 8.24778592 -0.24584609 4.13699632 0 0 Z " transform="translate(518,249)" style="fill: #BF491C;"/><path d="M0 0 C2 2 2 2 2.25 4.5 C2 7 2 7 0 9 C-2.5 9.25 -2.5 9.25 -5 9 C-7 7 -7 7 -7.125 3.875 C-7.08375 2.92625 -7.0425 1.9775 -7 1 C-4.48718205 -0.25640898 -2.78302919 -0.20872719 0 0 Z " transform="translate(583,267)" style="fill: #FCF7F5;"/></svg>